<?xml version="1.0" standalone="no"?><!DOCTYPE svg PUBLIC "-//W3C//DTD SVG 1.1//EN" "http://www.w3.org/Graphics/SVG/1.1/DTD/svg11.dtd"><svg t="1646114273717" class="icon" viewBox="0 0 1024 1024" version="1.1" xmlns="http://www.w3.org/2000/svg" p-id="5698" xmlns:xlink="http://www.w3.org/1999/xlink" width="200" height="200"><defs><style type="text/css"></style></defs><path d="M640 921.6V981.333333l-85.333333-85.333333-42.666667-42.666667h21.333333c174.933333 0 320-145.066667 320-320 0-145.066667-93.866667-264.533333-226.133333-307.2L571.733333 170.666667c183.466667 21.333333 324.266667 174.933333 324.266667 358.4 0 174.933333-123.733333 320-290.133333 354.133333l34.133333 38.4zM426.666667 145.066667V85.333333l85.333333 85.333334 42.666667 42.666666h-21.333334C358.4 213.333333 213.333333 354.133333 213.333333 533.333333c0 140.8 93.866667 264.533333 221.866667 302.933334l55.466667 55.466666c-179.2-21.333333-320-170.666667-320-358.4C170.666667 358.4 294.4 213.333333 460.8 179.2l-34.133333-34.133333z" fill="#8a8a8a" p-id="5699"></path></svg>