<?xml version="1.0" encoding="utf-8"?>
<!-- Generator: Adobe Illustrator 24.0.1, SVG Export Plug-In . SVG Version: 6.00 Build 0)  -->
<svg version="1.1" id="图层_1" xmlns="http://www.w3.org/2000/svg" xmlns:xlink="http://www.w3.org/1999/xlink" x="0px" y="0px"
	 viewBox="0 0 200 200" style="enable-background:new 0 0 200 200;" xml:space="preserve">
<style type="text/css">
	.st0{fill:#33A954;}
</style>
<path class="st0" d="M100,200C44.8,200,0,155.2,0,100S44.8,0,100,0s100,44.8,100,100S155.2,200,100,200z M86.1,135.3
	c1.5,0,2.9-0.6,4-1.6l61.2-59.6c2.2-2.1,2.2-5.5,0.1-7.7c0-0.1-0.1-0.1-0.1-0.1c-2.2-2.2-5.8-2.2-8,0L86.1,122L56.7,93.4
	c-2.2-2.2-5.8-2.2-8,0c-2.2,2.1-2.2,5.5-0.2,7.7c0.1,0.1,0.1,0.1,0.2,0.2l33.3,32.4C83.1,134.7,84.6,135.3,86.1,135.3L86.1,135.3z"
	/>
</svg>
